<svg width="22" height="22" viewBox="0 0 22 22" fill="none" xmlns="http://www.w3.org/2000/svg">
<path d="M11 2.0625C8.613 2.0625 6.36763 2.992 4.6805 4.6805C2.99338 6.369 2.0625 8.613 2.0625 11C2.0625 13.387 2.992 15.6324 4.6805 17.3195C6.369 19.0066 8.613 19.9375 11 19.9375C13.387 19.9375 15.6324 19.008 17.3195 17.3195C19.0066 15.631 19.9375 13.387 19.9375 11C19.9375 8.613 19.008 6.36763 17.3195 4.6805C15.631 2.99338 13.387 2.0625 11 2.0625ZM11 0C17.0748 0 22 4.92525 22 11C22 17.0748 17.0748 22 11 22C4.92525 22 0 17.0748 0 11C0 4.92525 4.92525 0 11 0ZM9.625 15.125H12.375V17.875H9.625V15.125ZM9.625 4.125H12.375V12.375H9.625V4.125Z" fill="#37433A"/>
</svg>
