<svg width="42" height="42" viewBox="0 0 42 42" fill="none" xmlns="http://www.w3.org/2000/svg">
<path d="M33.25 12.25H28V9.625C28 8.46468 27.5391 7.35188 26.7186 6.53141C25.8981 5.71093 24.7853 5.25 23.625 5.25H18.375C17.2147 5.25 16.1019 5.71093 15.2814 6.53141C14.4609 7.35188 14 8.46468 14 9.625V12.25H8.75C7.35761 12.25 6.02226 12.8031 5.03769 13.7877C4.05312 14.7723 3.5 16.1076 3.5 17.5V31.5C3.5 32.8924 4.05312 34.2277 5.03769 35.2123C6.02226 36.1969 7.35761 36.75 8.75 36.75H33.25C34.6424 36.75 35.9777 36.1969 36.9623 35.2123C37.9469 34.2277 38.5 32.8924 38.5 31.5V17.5C38.5 16.1076 37.9469 14.7723 36.9623 13.7877C35.9777 12.8031 34.6424 12.25 33.25 12.25ZM17.5 9.625C17.5 9.39293 17.5922 9.17037 17.7563 9.00628C17.9204 8.84219 18.1429 8.75 18.375 8.75H23.625C23.8571 8.75 24.0796 8.84219 24.2437 9.00628C24.4078 9.17037 24.5 9.39293 24.5 9.625V12.25H17.5V9.625ZM35 31.5C35 31.9641 34.8156 32.4092 34.4874 32.7374C34.1593 33.0656 33.7141 33.25 33.25 33.25H8.75C8.28587 33.25 7.84075 33.0656 7.51256 32.7374C7.18438 32.4092 7 31.9641 7 31.5V17.5C7 17.0359 7.18438 16.5907 7.51256 16.2626C7.84075 15.9344 8.28587 15.75 8.75 15.75H33.25C33.7141 15.75 34.1593 15.9344 34.4874 16.2626C34.8156 16.5907 35 17.0359 35 17.5V31.5Z" fill="#37433A"/>
<path d="M21 18.375C19.7886 18.375 18.6044 18.7342 17.5971 19.4072C16.5899 20.0803 15.8048 21.0369 15.3412 22.1561C14.8777 23.2753 14.7564 24.5068 14.9927 25.6949C15.229 26.8831 15.8124 27.9744 16.669 28.831C17.5256 29.6876 18.6169 30.271 19.8051 30.5073C20.9932 30.7436 22.2247 30.6223 23.3439 30.1588C24.4631 29.6952 25.4197 28.9101 26.0928 27.9029C26.7658 26.8956 27.125 25.7114 27.125 24.5C27.125 22.8755 26.4797 21.3176 25.331 20.169C24.1824 19.0203 22.6245 18.375 21 18.375ZM21 27.125C20.4808 27.125 19.9733 26.971 19.5416 26.6826C19.11 26.3942 18.7735 25.9842 18.5748 25.5045C18.3761 25.0249 18.3242 24.4971 18.4254 23.9879C18.5267 23.4787 18.7767 23.011 19.1438 22.6438C19.511 22.2767 19.9787 22.0267 20.4879 21.9254C20.9971 21.8242 21.5249 21.8761 22.0045 22.0748C22.4842 22.2735 22.8942 22.6099 23.1826 23.0416C23.4711 23.4733 23.625 23.9808 23.625 24.5C23.625 25.1962 23.3484 25.8639 22.8562 26.3562C22.3639 26.8484 21.6962 27.125 21 27.125Z" fill="#37433A"/>
</svg>
