<svg width="32" height="32" viewBox="0 0 32 32" fill="none" xmlns="http://www.w3.org/2000/svg">
<path d="M22.8885 18.3108C22.5056 19.6428 21.7468 20.8362 20.7029 21.7478C19.659 22.6595 18.3743 23.2508 17.0029 23.4509C15.9304 23.6065 14.8376 23.5438 13.79 23.2665C12.7424 22.9893 11.7616 22.5032 10.9065 21.8374C10.0514 21.1717 9.33971 20.3401 8.81404 19.3924C8.28837 18.4448 7.9596 17.4007 7.84749 16.3228C7.76064 15.2407 7.89924 14.1523 8.25454 13.1266C8.60983 12.1008 9.17409 11.1598 9.91164 10.3633C10.6492 9.56674 11.544 8.93188 12.5395 8.49884C13.5349 8.0658 14.6094 7.84401 15.695 7.84749C16.7122 7.84892 17.7199 8.04423 18.664 8.42297C18.8126 8.48971 18.9808 8.49855 19.1357 8.44774C19.2905 8.39694 19.4208 8.29015 19.501 8.14831L21.3844 4.68233C21.425 4.6025 21.4493 4.51545 21.4562 4.42617C21.463 4.33689 21.4521 4.24715 21.4242 4.16209C21.3962 4.07703 21.3517 3.99832 21.2933 3.93048C21.2348 3.86265 21.1636 3.80702 21.0836 3.76679C19.0612 2.85113 16.839 2.46534 14.6263 2.64573C12.4136 2.82613 10.2832 3.56679 8.43585 4.79794C6.58847 6.02909 5.08487 7.71022 4.06667 9.68299C3.04847 11.6558 2.54917 13.8552 2.61582 16.0743C2.74471 19.3701 4.09949 22.4991 6.41477 24.8482C8.73004 27.1973 11.839 28.5974 15.1326 28.7742C18.5828 28.9272 21.9534 27.7094 24.5091 25.3865C27.0648 23.0636 28.598 19.8242 28.7742 16.3751C28.7742 16.1135 28.7742 14.6094 28.7742 13.7593C28.7708 13.5869 28.7008 13.4225 28.5789 13.3006C28.457 13.1786 28.2926 13.1087 28.1202 13.1053H16.3489C16.1755 13.1053 16.0092 13.1742 15.8865 13.2969C15.7639 13.4195 15.695 13.5858 15.695 13.7593V17.683C15.695 17.8565 15.7639 18.0228 15.8865 18.1454C16.0092 18.2681 16.1755 18.337 16.3489 18.337H22.8885" fill="#231F20"/>
</svg>
