<svg width="18" height="16" viewBox="0 0 18 16" fill="none" xmlns="http://www.w3.org/2000/svg">
<path d="M10.5 5.1507V3.86301C10.5 3.52149 10.342 3.19396 10.0607 2.95247C9.77936 2.71098 9.39782 2.57532 9 2.57532H3.75C3.35218 2.57532 2.97064 2.71098 2.68934 2.95247C2.40804 3.19396 2.25 3.52149 2.25 3.86301V11.5892C2.25 11.9307 2.40804 12.2582 2.68934 12.4997C2.97064 12.7412 3.35218 12.8769 3.75 12.8769H9C9.39782 12.8769 9.77936 12.7412 10.0607 12.4997C10.342 12.2582 10.5 11.9307 10.5 11.5892V10.3015" stroke="#37433A" stroke-linecap="round" stroke-linejoin="round"/>
<path d="M5.25 7.72609H15.75M15.75 7.72609L13.5 5.79456M15.75 7.72609L13.5 9.65763" stroke="#37433A" stroke-linecap="round" stroke-linejoin="round"/>
</svg>
