<svg width="34" height="34" viewBox="0 0 34 34" fill="none" xmlns="http://www.w3.org/2000/svg">
<path fill-rule="evenodd" clip-rule="evenodd" d="M23.1818 12.3636C23.1818 15.7777 20.414 18.5455 16.9999 18.5455C13.5858 18.5455 10.8181 15.7777 10.8181 12.3636C10.8181 8.94952 13.5858 6.18182 16.9999 6.18182C20.414 6.18182 23.1818 8.94952 23.1818 12.3636ZM20.0908 12.3636C20.0908 14.0708 18.707 15.4546 16.9999 15.4546C15.2928 15.4546 13.909 14.0708 13.909 12.3636C13.909 10.6566 15.2928 9.27273 16.9999 9.27273C18.707 9.27273 20.0908 10.6566 20.0908 12.3636Z" fill="#C18E60"/>
<path fill-rule="evenodd" clip-rule="evenodd" d="M17 0C7.61116 0 0 7.61116 0 17C0 26.3888 7.61116 34 17 34C26.3888 34 34 26.3888 34 17C34 7.61116 26.3888 0 17 0ZM3.09091 17C3.09091 20.2303 4.19212 23.2035 6.03961 25.5644C8.58106 22.2374 12.5897 20.0909 17.0997 20.0909C21.5511 20.0909 25.5142 22.1821 28.06 25.4356C29.8474 23.0957 30.9091 20.1719 30.9091 17C30.9091 9.31822 24.6818 3.09091 17 3.09091C9.31822 3.09091 3.09091 9.31822 3.09091 17ZM17 30.9091C13.6769 30.9091 10.626 29.7437 8.23367 27.7993C10.19 25.0073 13.4316 23.1818 17.0997 23.1818C20.7221 23.1818 23.9287 24.9623 25.8922 27.6959C23.4815 29.7022 20.3816 30.9091 17 30.9091Z" fill="#C18E60"/>
</svg>
