<svg width="15" height="15" viewBox="0 0 15 15" fill="none" xmlns="http://www.w3.org/2000/svg">
<path d="M7.50002 9.22573C8.47907 9.22573 9.27275 8.42416 9.27275 7.43537C9.27275 6.44659 8.47907 5.64502 7.50002 5.64502C6.52097 5.64502 5.72729 6.44659 5.72729 7.43537C5.72729 8.42416 6.52097 9.22573 7.50002 9.22573Z" stroke="#37433A" stroke-linecap="round" stroke-linejoin="round"/>
<path d="M11.8727 9.27273C11.7941 9.45095 11.7706 9.64866 11.8054 9.84035C11.8401 10.032 11.9315 10.2089 12.0677 10.3482L12.1032 10.3836C12.2131 10.4934 12.3002 10.6237 12.3597 10.7672C12.4192 10.9107 12.4498 11.0645 12.4498 11.2198C12.4498 11.3751 12.4192 11.5289 12.3597 11.6723C12.3002 11.8158 12.2131 11.9461 12.1032 12.0559C11.9934 12.1658 11.8631 12.253 11.7196 12.3124C11.5761 12.3719 11.4224 12.4025 11.267 12.4025C11.1117 12.4025 10.9579 12.3719 10.8145 12.3124C10.671 12.253 10.5407 12.1658 10.4309 12.0559L10.3955 12.0205C10.2562 11.8842 10.0793 11.7928 9.88762 11.7581C9.69593 11.7233 9.49823 11.7468 9.32 11.8255C9.14523 11.9004 8.99617 12.0247 8.89118 12.1833C8.78619 12.3418 8.72985 12.5276 8.72909 12.7177V12.8182C8.72909 13.1316 8.60458 13.4322 8.38294 13.6539C8.16131 13.8755 7.86071 14 7.54727 14C7.23383 14 6.93323 13.8755 6.7116 13.6539C6.48997 13.4322 6.36545 13.1316 6.36545 12.8182V12.765C6.36088 12.5694 6.29757 12.3797 6.18376 12.2206C6.06994 12.0615 5.91089 11.9403 5.72727 11.8727C5.54904 11.7941 5.35134 11.7706 5.15965 11.8054C4.96796 11.8401 4.79108 11.9315 4.65182 12.0677L4.61636 12.1032C4.5066 12.2131 4.37626 12.3002 4.23279 12.3597C4.08932 12.4192 3.93554 12.4498 3.78023 12.4498C3.62492 12.4498 3.47113 12.4192 3.32766 12.3597C3.18419 12.3002 3.05385 12.2131 2.94409 12.1032C2.83421 11.9934 2.74704 11.8631 2.68757 11.7196C2.62809 11.5761 2.59748 11.4224 2.59748 11.267C2.59748 11.1117 2.62809 10.9579 2.68757 10.8145C2.74704 10.671 2.83421 10.5407 2.94409 10.4309L2.97955 10.3955C3.11577 10.2562 3.20715 10.0793 3.24191 9.88762C3.27667 9.69593 3.2532 9.49823 3.17455 9.32C3.09964 9.14523 2.97526 8.99617 2.81673 8.89118C2.65819 8.78619 2.47242 8.72985 2.28227 8.72909H2.18182C1.86838 8.72909 1.56778 8.60458 1.34615 8.38294C1.12451 8.16131 1 7.86071 1 7.54727C1 7.23383 1.12451 6.93323 1.34615 6.7116C1.56778 6.48997 1.86838 6.36545 2.18182 6.36545H2.235C2.43059 6.36088 2.62028 6.29757 2.7794 6.18376C2.93853 6.06994 3.05974 5.91089 3.12727 5.72727C3.20593 5.54904 3.2294 5.35134 3.19464 5.15965C3.15988 4.96796 3.0685 4.79108 2.93227 4.65182L2.89682 4.61636C2.78694 4.5066 2.69977 4.37626 2.64029 4.23279C2.58082 4.08932 2.55021 3.93554 2.55021 3.78023C2.55021 3.62492 2.58082 3.47113 2.64029 3.32766C2.69977 3.18419 2.78694 3.05385 2.89682 2.94409C3.00658 2.83421 3.13692 2.74704 3.28039 2.68757C3.42386 2.62809 3.57765 2.59748 3.73295 2.59748C3.88826 2.59748 4.04205 2.62809 4.18552 2.68757C4.32899 2.74704 4.45933 2.83421 4.56909 2.94409L4.60455 2.97955C4.74381 3.11577 4.92069 3.20715 5.11238 3.24191C5.30407 3.27667 5.50177 3.2532 5.68 3.17455H5.72727C5.90205 3.09964 6.0511 2.97526 6.15609 2.81673C6.26108 2.65819 6.31742 2.47242 6.31818 2.28227V2.18182C6.31818 1.86838 6.44269 1.56778 6.66433 1.34615C6.88596 1.12451 7.18656 1 7.5 1C7.81344 1 8.11404 1.12451 8.33567 1.34615C8.5573 1.56778 8.68182 1.86838 8.68182 2.18182V2.235C8.68258 2.42515 8.73892 2.61092 8.84391 2.76946C8.9489 2.92799 9.09795 3.05237 9.27273 3.12727C9.45095 3.20593 9.64866 3.2294 9.84035 3.19464C10.032 3.15988 10.2089 3.0685 10.3482 2.93227L10.3836 2.89682C10.4934 2.78694 10.6237 2.69977 10.7672 2.64029C10.9107 2.58082 11.0645 2.55021 11.2198 2.55021C11.3751 2.55021 11.5289 2.58082 11.6723 2.64029C11.8158 2.69977 11.9461 2.78694 12.0559 2.89682C12.1658 3.00658 12.253 3.13692 12.3124 3.28039C12.3719 3.42386 12.4025 3.57765 12.4025 3.73295C12.4025 3.88826 12.3719 4.04205 12.3124 4.18552C12.253 4.32899 12.1658 4.45933 12.0559 4.56909L12.0205 4.60455C11.8842 4.74381 11.7928 4.92069 11.7581 5.11238C11.7233 5.30407 11.7468 5.50177 11.8255 5.68V5.72727C11.9004 5.90205 12.0247 6.0511 12.1833 6.15609C12.3418 6.26108 12.5276 6.31742 12.7177 6.31818H12.8182C13.1316 6.31818 13.4322 6.44269 13.6539 6.66433C13.8755 6.88596 14 7.18656 14 7.5C14 7.81344 13.8755 8.11404 13.6539 8.33567C13.4322 8.5573 13.1316 8.68182 12.8182 8.68182H12.765C12.5749 8.68258 12.3891 8.73892 12.2305 8.84391C12.072 8.9489 11.9476 9.09795 11.8727 9.27273Z" stroke="#37433A" stroke-linecap="round" stroke-linejoin="round"/>
</svg>
