<svg width="23" height="23" viewBox="0 0 23 23" fill="none" xmlns="http://www.w3.org/2000/svg">
<path d="M17.2498 14.375C16.4969 14.3756 15.7743 14.6716 15.2373 15.1992L7.66643 11.8258C7.66643 11.7108 7.66643 11.615 7.66643 11.5C7.66643 11.385 7.66643 11.2892 7.66643 11.1838L15.2373 7.80085C15.7115 8.26566 16.3319 8.55199 16.9933 8.61122C17.6547 8.67046 18.3162 8.49893 18.8654 8.12579C19.4146 7.75264 19.8178 7.20087 20.0064 6.5642C20.195 5.92753 20.1574 5.24521 19.8999 4.63313C19.6425 4.02104 19.1812 3.51693 18.5942 3.20642C18.0073 2.8959 17.331 2.79812 16.6801 2.92968C16.0293 3.06125 15.444 3.41405 15.0238 3.92816C14.6036 4.44227 14.3742 5.086 14.3748 5.75001V6.07585L6.80393 9.44918C6.39986 9.05219 5.88752 8.78342 5.33123 8.6766C4.77494 8.56978 4.19948 8.62967 3.67711 8.84875C3.15474 9.06784 2.70873 9.43635 2.39506 9.90804C2.0814 10.3797 1.91406 10.9336 1.91406 11.5C1.91406 12.0665 2.0814 12.6203 2.39506 13.092C2.70873 13.5637 3.15474 13.9322 3.67711 14.1513C4.19948 14.3704 4.77494 14.4303 5.33123 14.3234C5.88752 14.2166 6.39986 13.9478 6.80393 13.5508L14.3748 16.9338V17.25C14.3748 17.8186 14.5434 18.3745 14.8593 18.8473C15.1752 19.3201 15.6242 19.6886 16.1496 19.9062C16.6749 20.1238 17.253 20.1807 17.8107 20.0698C18.3683 19.9588 18.8806 19.685 19.2827 19.2829C19.6848 18.8809 19.9586 18.3686 20.0695 17.8109C20.1805 17.2532 20.1235 16.6751 19.9059 16.1498C19.6883 15.6245 19.3198 15.1754 18.847 14.8595C18.3742 14.5436 17.8184 14.375 17.2498 14.375Z" fill="#37433A"/>
</svg>
