<svg width="42" height="42" viewBox="0 0 42 42" fill="none" xmlns="http://www.w3.org/2000/svg">
<path d="M30.8498 35.9914H10.2832C8.91959 35.9914 7.61179 35.4497 6.64755 34.4855C5.68331 33.5212 5.1416 32.2134 5.1416 30.8498V10.2833C5.1416 8.91962 5.68331 7.61182 6.64755 6.64758C7.61179 5.68334 8.91959 5.14163 10.2832 5.14163H30.8498C32.2134 5.14163 33.5212 5.68334 34.4854 6.64758C35.4497 7.61182 35.9914 8.91962 35.9914 10.2833V30.8498C35.9914 32.2134 35.4497 33.5212 34.4854 34.4855C33.5212 35.4497 32.2134 35.9914 30.8498 35.9914ZM10.2832 8.56938C9.82868 8.56938 9.39275 8.74995 9.07134 9.07137C8.74993 9.39278 8.56936 9.82871 8.56936 10.2833V30.8498C8.56936 31.3043 8.74993 31.7403 9.07134 32.0617C9.39275 32.3831 9.82868 32.5637 10.2832 32.5637H30.8498C31.3043 32.5637 31.7402 32.3831 32.0617 32.0617C32.3831 31.7403 32.5636 31.3043 32.5636 30.8498V10.2833C32.5636 9.82871 32.3831 9.39278 32.0617 9.07137C31.7402 8.74995 31.3043 8.56938 30.8498 8.56938H10.2832Z" fill="#37433A"/>
</svg>
