<svg width="27" height="24" viewBox="0 0 27 24" fill="none" xmlns="http://www.w3.org/2000/svg">
<path d="M19.8907 7.05C19.8907 6.78478 19.7756 6.53043 19.5708 6.34289C19.366 6.15536 19.0882 6.05 18.7985 6.05L10.0613 6C9.77169 6 9.4939 6.10536 9.28908 6.29289C9.08426 6.48043 8.9692 6.73478 8.9692 7C8.9692 7.26522 9.08426 7.51957 9.28908 7.70711C9.4939 7.89464 9.77169 8 10.0613 8C12.2169 8 13.2481 10.6486 11.6601 12.1061L7.10162 16.29C6.99926 16.383 6.91801 16.4936 6.86256 16.6154C6.80711 16.7373 6.77856 16.868 6.77856 17C6.77856 17.132 6.80711 17.2627 6.86256 17.3846C6.91801 17.5064 6.99926 17.617 7.10162 17.71C7.20315 17.8037 7.32394 17.8781 7.45703 17.9289C7.59012 17.9797 7.73287 18.0058 7.87705 18.0058C8.02122 18.0058 8.16397 17.9797 8.29706 17.9289C8.43015 17.8781 8.55094 17.8037 8.65247 17.71L13.5909 13.1882C15.1669 11.7452 17.7064 12.8632 17.7064 15C17.7064 15.2652 17.8215 15.5196 18.0263 15.7071C18.2311 15.8946 18.5089 16 18.7985 16C19.0882 16 19.366 15.8946 19.5708 15.7071C19.7756 15.5196 19.8907 15.2652 19.8907 15V7.05Z" fill="#37433A"/>
</svg>
