<svg width="18" height="12" viewBox="0 0 18 12" fill="none" xmlns="http://www.w3.org/2000/svg">
<path d="M9.16174 11.0413C8.94063 11.0426 8.72144 11.0002 8.51674 10.9166C8.31204 10.833 8.12586 10.7098 7.96887 10.5541L1.2485 3.83369C1.09185 3.67704 0.967586 3.49107 0.882808 3.2864C0.79803 3.08173 0.754395 2.86236 0.754395 2.64083C0.754395 2.41929 0.79803 2.19992 0.882808 1.99525C0.967586 1.79058 1.09185 1.60461 1.2485 1.44796C1.40515 1.29131 1.59112 1.16705 1.79579 1.08227C2.00046 0.997491 2.21983 0.953857 2.44136 0.953857C2.6629 0.953857 2.88227 0.997491 3.08694 1.08227C3.29161 1.16705 3.47758 1.29131 3.63423 1.44796L9.16174 7.00907L14.7061 1.66637C14.8606 1.49451 15.049 1.3564 15.2593 1.26065C15.4697 1.16491 15.6976 1.11361 15.9287 1.10995C16.1598 1.10628 16.3891 1.15034 16.6024 1.23937C16.8157 1.3284 17.0084 1.46049 17.1683 1.62736C17.3282 1.79424 17.452 1.99231 17.5319 2.2092C17.6117 2.42609 17.646 2.65713 17.6325 2.88787C17.619 3.11861 17.5581 3.34408 17.4535 3.55019C17.3489 3.75629 17.2029 3.9386 17.0246 4.08571L10.3042 10.5709C9.99696 10.8671 9.58849 11.0353 9.16174 11.0413Z" fill="#37433A"/>
</svg>
