<svg width="24" height="24" viewBox="0 0 24 24" fill="none" xmlns="http://www.w3.org/2000/svg">
<path d="M12.0002 0.333252C5.56016 0.333252 0.333496 5.55992 0.333496 11.9999C0.333496 18.4399 5.56016 23.6666 12.0002 23.6666C18.4402 23.6666 23.6668 18.4399 23.6668 11.9999C23.6668 5.55992 18.4402 0.333252 12.0002 0.333252ZM16.7018 12.6183L13.2018 16.1183C13.0268 16.2933 12.8052 16.3749 12.5835 16.3749C12.3618 16.3749 12.1402 16.2933 11.9652 16.1183C11.8024 15.9536 11.7112 15.7314 11.7112 15.4999C11.7112 15.2684 11.8024 15.0462 11.9652 14.8816L13.9718 12.8749H7.91683C7.4385 12.8749 7.04183 12.4783 7.04183 11.9999C7.04183 11.5216 7.4385 11.1249 7.91683 11.1249H13.9718L11.9652 9.11825C11.8024 8.95359 11.7112 8.73142 11.7112 8.49992C11.7112 8.26842 11.8024 8.04625 11.9652 7.88159C12.3035 7.54325 12.8635 7.54325 13.2018 7.88159L16.7018 11.3816C17.0402 11.7199 17.0402 12.2799 16.7018 12.6183Z" fill="#FBFBFB"/>
</svg>
