<svg width="23" height="25" viewBox="0 0 23 25" fill="none" xmlns="http://www.w3.org/2000/svg">
<path d="M11.2126 24.3788C11.6851 24.3679 12.1385 24.1903 12.4926 23.8773C12.8467 23.5644 13.0787 23.1363 13.1476 22.6688H9.20264C9.27349 23.149 9.51638 23.5871 9.88611 23.9017C10.2558 24.2162 10.7273 24.3858 11.2126 24.3788Z" fill="black"/>
<path d="M22.35 19.7662L22.095 19.5413C21.3716 18.8967 20.7384 18.1575 20.2125 17.3438C19.6382 16.2207 19.2939 14.9942 19.2 13.7363V10.0312C19.197 9.58121 19.1568 9.13219 19.08 8.68875C17.8096 8.42763 16.6684 7.73552 15.8498 6.72959C15.0311 5.72366 14.5852 4.46572 14.5875 3.16875C14.5875 3.01125 14.5875 2.85375 14.5875 2.69625C13.8044 2.31089 12.9631 2.05748 12.0975 1.94625V1.00125C12.0975 0.735702 11.992 0.48103 11.8042 0.293259C11.6165 0.105489 11.3618 0 11.0962 0C10.8307 0 10.576 0.105489 10.3883 0.293259C10.2005 0.48103 10.095 0.735702 10.095 1.00125V1.98375C8.15679 2.25716 6.38293 3.22256 5.10092 4.7017C3.8189 6.18084 3.1153 8.07385 3.12 10.0312V13.7363C3.02607 14.9942 2.68183 16.2207 2.1075 17.3438C1.59066 18.1555 0.967646 18.8946 0.255 19.5413L0 19.7662V21.8813H22.35V19.7662Z" fill="#37433A"/>
</svg>
