<svg width="33" height="33" viewBox="0 0 33 33" fill="none" xmlns="http://www.w3.org/2000/svg">
<path d="M23.5614 8.13788C21.5307 6.23644 18.8954 5.19413 16.0996 5.1966C11.0681 5.20102 6.7244 8.65091 5.52509 13.4365C5.43779 13.7848 5.12742 14.0308 4.76827 14.0308H1.04601C0.55896 14.0308 0.188961 13.5887 0.279058 13.11C1.68454 5.64637 8.23746 0 16.1095 0C20.4258 0 24.3455 1.69773 27.2377 4.46161L29.5576 2.14165C30.5397 1.15956 32.2189 1.85512 32.2189 3.24404V11.9522C32.2189 12.8132 31.521 13.5112 30.66 13.5112H21.9518C20.5629 13.5112 19.8673 11.8319 20.8494 10.8498L23.5614 8.13788ZM1.55898 18.7078H10.2671C11.656 18.7078 12.3516 20.387 11.3695 21.3691L8.65754 24.0811C10.6882 25.9826 13.3238 27.0249 16.1196 27.0224C21.1485 27.0179 25.4939 23.5703 26.6938 18.7826C26.7811 18.4342 27.0915 18.1882 27.4507 18.1882H31.173C31.66 18.1882 32.03 18.6304 31.9399 19.1091C30.5344 26.5726 23.9815 32.2189 16.1095 32.2189C11.7932 32.2189 7.87344 30.5212 4.98127 27.7573L2.66131 30.0773C1.67922 31.0594 0 30.3638 0 28.9749V20.2667C0 19.4057 0.697969 18.7078 1.55898 18.7078Z" fill="#37433A"/>
</svg>
