<svg width="49" height="49" viewBox="0 0 49 49" fill="none" xmlns="http://www.w3.org/2000/svg">
<path d="M38.2507 10.0659H10.066C8.46416 10.0659 6.92796 10.7022 5.79532 11.8349C4.66268 12.9675 4.02637 14.5037 4.02637 16.1055V32.2111C4.02637 33.8129 4.66268 35.3491 5.79532 36.4817C6.92796 37.6143 8.46416 38.2507 10.066 38.2507H38.2507C39.8525 38.2507 41.3887 37.6143 42.5213 36.4817C43.654 35.3491 44.2903 33.8129 44.2903 32.2111V16.1055C44.2903 14.5037 43.654 12.9675 42.5213 11.8349C41.3887 10.7022 39.8525 10.0659 38.2507 10.0659ZM8.05276 16.1055C8.05276 15.5716 8.26486 15.0595 8.64241 14.682C9.01996 14.3044 9.53202 14.0923 10.066 14.0923H38.2507C38.7846 14.0923 39.2967 14.3044 39.6742 14.682C40.0518 15.0595 40.2639 15.5716 40.2639 16.1055V18.1187H8.05276V16.1055ZM40.2639 32.2111C40.2639 32.745 40.0518 33.2571 39.6742 33.6346C39.2967 34.0122 38.7846 34.2243 38.2507 34.2243H10.066C9.53202 34.2243 9.01996 34.0122 8.64241 33.6346C8.26486 33.2571 8.05276 32.745 8.05276 32.2111V22.1451H40.2639V32.2111Z" fill="#37433A"/>
<path d="M14.0923 30.1979H22.1451C22.679 30.1979 23.1911 29.9858 23.5686 29.6082C23.9462 29.2307 24.1583 28.7186 24.1583 28.1847C24.1583 27.6508 23.9462 27.1387 23.5686 26.7612C23.1911 26.3836 22.679 26.1715 22.1451 26.1715H14.0923C13.5584 26.1715 13.0463 26.3836 12.6688 26.7612C12.2912 27.1387 12.0791 27.6508 12.0791 28.1847C12.0791 28.7186 12.2912 29.2307 12.6688 29.6082C13.0463 29.9858 13.5584 30.1979 14.0923 30.1979Z" fill="#37433A"/>
<path d="M30.1978 30.1979H34.2242C34.7581 30.1979 35.2702 29.9858 35.6477 29.6082C36.0252 29.2307 36.2374 28.7186 36.2374 28.1847C36.2374 27.6508 36.0252 27.1387 35.6477 26.7612C35.2702 26.3836 34.7581 26.1715 34.2242 26.1715H30.1978C29.6638 26.1715 29.1518 26.3836 28.7742 26.7612C28.3967 27.1387 28.1846 27.6508 28.1846 28.1847C28.1846 28.7186 28.3967 29.2307 28.7742 29.6082C29.1518 29.9858 29.6638 30.1979 30.1978 30.1979Z" fill="#37433A"/>
</svg>
