<svg width="15" height="16" viewBox="0 0 15 16" fill="none" xmlns="http://www.w3.org/2000/svg">
<path d="M10.4793 15.0767C10.77 15.1453 11.0797 15.1094 11.3404 14.9768C11.601 14.8442 11.7912 14.6257 11.8691 14.3696L14.2735 6.65509C14.3514 6.39891 14.3106 6.12595 14.1601 5.89627C14.0096 5.66658 13.7618 5.49899 13.4711 5.43034C13.1804 5.3617 12.8706 5.39763 12.61 5.53024C12.3494 5.66285 12.1592 5.88127 12.0813 6.13745V6.13745C11.4501 8.21347 8.618 8.72199 7.46461 6.9664L3.79065 1.37418C3.71628 1.25958 3.6169 1.1591 3.49825 1.07852C3.37959 0.997944 3.244 0.938867 3.0993 0.904699C2.95461 0.870532 2.80367 0.861951 2.65519 0.87945C2.50671 0.89695 2.36363 0.940183 2.23421 1.00666C2.10417 1.07219 1.99014 1.15977 1.89871 1.26434C1.80727 1.36891 1.74024 1.48839 1.70146 1.61591C1.66269 1.74342 1.65295 1.87644 1.67281 2.00728C1.69267 2.13813 1.74173 2.26422 1.81716 2.37827L5.13509 7.44266C6.30536 9.22892 4.49972 11.5941 2.35282 11.0872V11.0872C2.06212 11.0186 1.75238 11.0545 1.49175 11.1871C1.23111 11.3197 1.04093 11.5381 0.963038 11.7943C0.885145 12.0505 0.925923 12.3234 1.0764 12.5531C1.22688 12.7828 1.47473 12.9504 1.76543 13.019L10.4793 15.0767Z" fill="#37433A"/>
</svg>
