<svg width="15" height="9" viewBox="0 0 15 9" fill="none" xmlns="http://www.w3.org/2000/svg">
<path d="M0.31343 0.326813C0.514179 0.126125 0.786417 0.0133838 1.07028 0.0133838C1.35414 0.0133838 1.62637 0.126125 1.82712 0.326813L7.49331 5.993L13.1595 0.326813C13.2582 0.224569 13.3764 0.143015 13.507 0.086911C13.6376 0.0308068 13.7781 0.00127558 13.9202 4.04177e-05C14.0623 -0.00119475 14.2033 0.0258916 14.3349 0.0797176C14.4664 0.133544 14.5859 0.213032 14.6865 0.313545C14.787 0.414057 14.8665 0.533581 14.9203 0.665142C14.9741 0.796703 15.0012 0.937666 15 1.07981C14.9987 1.22195 14.9692 1.36242 14.9131 1.49303C14.857 1.62363 14.7754 1.74176 14.6732 1.84051L8.25016 8.26354C8.04941 8.46423 7.77717 8.57697 7.49331 8.57697C7.20945 8.57697 6.93721 8.46423 6.73646 8.26354L0.31343 1.84051C0.112741 1.63976 0 1.36752 0 1.08366C0 0.799801 0.112741 0.527563 0.31343 0.326813Z" fill="white"/>
</svg>
