<svg width="18" height="10" viewBox="0 0 18 10" fill="none" xmlns="http://www.w3.org/2000/svg">
<path d="M15.7461 3.13745C14.5032 3.13745 13.4966 4.03103 13.4966 5.13426V5.29401L12.5856 5.54361L9.99875 2.06916L8.05299 6.38227L6.74831 0.581539L4.16146 5.35391L2.31692 4.046L0 5.13426V6.21254L2.18195 5.21413L4.55511 6.91142L6.30967 3.69656L7.69308 9.87668L10.2462 4.20575L12.1357 6.72173L13.879 6.24249C14.2884 6.78163 14.9734 7.13107 15.7506 7.13107C16.9934 7.13107 18 6.2375 18 5.13426C18 4.03103 16.9934 3.13745 15.7506 3.13745C15.7494 3.13745 15.7472 3.13745 15.7461 3.13745ZM15.7461 6.13267C15.1252 6.13267 14.6213 5.68538 14.6213 5.13426C14.6213 4.58314 15.1252 4.13586 15.7461 4.13586C16.3669 4.13586 16.8708 4.58314 16.8708 5.13426C16.8708 5.68538 16.3669 6.13267 15.7461 6.13267Z" fill="#32543A"/>
</svg>
