<svg width="15" height="13" viewBox="0 0 15 13" fill="none" xmlns="http://www.w3.org/2000/svg">
<path fill-rule="evenodd" clip-rule="evenodd" d="M5.32497 7.11692C5.89467 7.11692 6.35651 7.51436 6.35651 8.00462V11.5554C6.35651 12.0457 5.89467 12.4431 5.32497 12.4431H1.19878C0.62908 12.4431 0.167236 12.0457 0.167236 11.5554V8.00462C0.167236 7.51436 0.62908 7.11692 1.19878 7.11692H5.32497ZM13.5773 10.6677C14.1471 10.6677 14.6089 11.0651 14.6089 11.5554C14.6089 12.0457 14.1471 12.4431 13.5773 12.4431H9.45115C8.88145 12.4431 8.4196 12.0457 8.4196 11.5554C8.4196 11.0651 8.88145 10.6677 9.45115 10.6677H13.5773ZM4.29342 9.78C4.29342 9.28974 3.89599 8.89231 3.40573 8.89231H3.11802C2.62776 8.89231 2.23033 9.28974 2.23033 9.78C2.23033 10.2703 2.62776 10.6677 3.11802 10.6677H3.40573C3.89599 10.6677 4.29342 10.2703 4.29342 9.78ZM13.5773 7.11692C14.1471 7.11692 14.6089 7.51436 14.6089 8.00462C14.6089 8.49489 14.1471 8.89231 13.5773 8.89231H9.45115C8.88145 8.89231 8.4196 8.49489 8.4196 8.00462C8.4196 7.51436 8.88145 7.11692 9.45115 7.11692H13.5773ZM5.32497 0.0153847C5.89467 0.0153847 6.35651 0.412822 6.35651 0.903077V4.45385C6.35651 4.9441 5.89467 5.34154 5.32497 5.34154H1.19878C0.62908 5.34154 0.167236 4.9441 0.167236 4.45385V0.903077C0.167236 0.412822 0.62908 0.0153847 1.19878 0.0153847H5.32497ZM13.5773 3.56615C14.1471 3.56615 14.6089 3.96359 14.6089 4.45385C14.6089 4.90908 14.2107 5.28429 13.6976 5.33557L13.5773 5.34154H9.45115C8.88145 5.34154 8.4196 4.9441 8.4196 4.45385C8.4196 3.99861 8.81783 3.6234 9.33085 3.57213L9.45115 3.56615H13.5773ZM4.29342 2.67846C4.29342 2.1882 3.89599 1.79077 3.40573 1.79077H3.11802C2.62776 1.79077 2.23033 2.1882 2.23033 2.67846C2.23033 3.16872 2.62776 3.56615 3.11802 3.56615H3.40573C3.89599 3.56615 4.29342 3.16872 4.29342 2.67846ZM13.5773 0.0153847C14.1471 0.0153847 14.6089 0.412822 14.6089 0.903077C14.6089 1.39333 14.1471 1.79077 13.5773 1.79077H9.45115C8.88145 1.79077 8.4196 1.39333 8.4196 0.903077C8.4196 0.412822 8.88145 0.0153847 9.45115 0.0153847H13.5773Z" fill="#32543A"/>
</svg>
