<svg width="34" height="34" viewBox="0 0 34 34" fill="none" xmlns="http://www.w3.org/2000/svg">
<path d="M12.7507 15.5833C13.8714 15.5833 14.967 15.251 15.8989 14.6283C16.8308 14.0057 17.5571 13.1207 17.986 12.0852C18.4149 11.0498 18.5271 9.91038 18.3084 8.81116C18.0898 7.71193 17.5501 6.70223 16.7576 5.90973C15.9651 5.11723 14.9554 4.57754 13.8562 4.35889C12.7569 4.14024 11.6176 4.25246 10.5821 4.68135C9.54666 5.11025 8.66165 5.83656 8.03899 6.76844C7.41633 7.70032 7.08398 8.79591 7.08398 9.91667C7.08398 11.4196 7.68101 12.8609 8.74371 13.9236C9.80642 14.9863 11.2478 15.5833 12.7507 15.5833Z" fill="#37433A"/>
<path d="M24.084 18.4166C24.9246 18.4166 25.7462 18.1674 26.4452 17.7004C27.1441 17.2334 27.6888 16.5696 28.0105 15.793C28.3321 15.0164 28.4163 14.1619 28.2523 13.3375C28.0883 12.5131 27.6836 11.7558 27.0892 11.1614C26.4948 10.5671 25.7375 10.1623 24.9131 9.99829C24.0887 9.8343 23.2342 9.91847 22.4576 10.2401C21.681 10.5618 21.0172 11.1065 20.5502 11.8055C20.0832 12.5044 19.834 13.3261 19.834 14.1666C19.834 15.2938 20.2818 16.3748 21.0788 17.1718C21.8758 17.9689 22.9568 18.4166 24.084 18.4166Z" fill="#37433A"/>
<path d="M29.7507 28.3333C30.1264 28.3333 30.4867 28.1841 30.7524 27.9184C31.0181 27.6527 31.1673 27.2924 31.1673 26.9166C31.1662 25.5926 30.794 24.2954 30.0929 23.1722C29.3919 22.049 28.3901 21.1448 27.2011 20.5621C26.0122 19.9795 24.6838 19.7417 23.3666 19.8758C22.0494 20.0099 20.7961 20.5105 19.749 21.3208C18.3614 19.9386 16.5956 18.9983 14.6742 18.6184C12.7529 18.2385 10.7621 18.436 8.95289 19.1861C7.14367 19.9361 5.59707 21.2051 4.50812 22.833C3.41917 24.4609 2.83663 26.3748 2.83398 28.3333C2.83398 28.709 2.98324 29.0694 3.24892 29.335C3.51459 29.6007 3.87493 29.75 4.25065 29.75H21.2507C21.6264 29.75 21.9867 29.6007 22.2524 29.335C22.5181 29.0694 22.6673 28.709 22.6673 28.3333" fill="#37433A"/>
</svg>
