<svg width="23" height="23" viewBox="0 0 23 23" fill="none" xmlns="http://www.w3.org/2000/svg">
<path d="M11.4989 10.5417C12.257 10.5417 12.9982 10.3168 13.6285 9.89564C14.2589 9.47442 14.7503 8.87574 15.0404 8.17529C15.3305 7.47484 15.4064 6.70408 15.2585 5.96049C15.1106 5.2169 14.7455 4.53386 14.2094 3.99776C13.6733 3.46166 12.9903 3.09657 12.2467 2.94866C11.5031 2.80075 10.7324 2.87666 10.0319 3.1668C9.33146 3.45693 8.73277 3.94826 8.31156 4.57865C7.89035 5.20904 7.66553 5.95017 7.66553 6.70834C7.66553 7.725 8.0694 8.70002 8.78828 9.41891C9.50717 10.1378 10.4822 10.5417 11.4989 10.5417ZM11.4989 4.79167C11.8779 4.79167 12.2485 4.90408 12.5637 5.11469C12.8789 5.32529 13.1246 5.62463 13.2696 5.97486C13.4147 6.32508 13.4527 6.71046 13.3787 7.08226C13.3047 7.45406 13.1222 7.79557 12.8541 8.06362C12.5861 8.33167 12.2446 8.51422 11.8728 8.58817C11.501 8.66213 11.1156 8.62417 10.7654 8.4791C10.4152 8.33404 10.1158 8.08837 9.90521 7.77318C9.6946 7.45798 9.58219 7.08742 9.58219 6.70834C9.58219 6.2 9.78413 5.71249 10.1436 5.35305C10.503 4.9936 10.9905 4.79167 11.4989 4.79167Z" fill="#37433A"/>
<path d="M11.4993 12.4583C9.72019 12.4583 8.0139 13.1651 6.75584 14.4231C5.49778 15.6812 4.79102 17.3875 4.79102 19.1666C4.79102 19.4208 4.89198 19.6646 5.07171 19.8443C5.25143 20.024 5.49518 20.125 5.74935 20.125C6.00351 20.125 6.24727 20.024 6.42699 19.8443C6.60672 19.6646 6.70768 19.4208 6.70768 19.1666C6.70768 17.8958 7.21252 16.677 8.11113 15.7784C9.00974 14.8798 10.2285 14.375 11.4993 14.375C12.7702 14.375 13.989 14.8798 14.8876 15.7784C15.7862 16.677 16.291 17.8958 16.291 19.1666C16.291 19.4208 16.392 19.6646 16.5717 19.8443C16.7514 20.024 16.9952 20.125 17.2493 20.125C17.5035 20.125 17.7473 20.024 17.927 19.8443C18.1067 19.6646 18.2077 19.4208 18.2077 19.1666C18.2077 17.3875 17.5009 15.6812 16.2429 14.4231C14.9848 13.1651 13.2785 12.4583 11.4993 12.4583Z" fill="#37433A"/>
</svg>
