<svg width="21" height="21" viewBox="0 0 21 21" fill="none" xmlns="http://www.w3.org/2000/svg">
<path d="M10.501 1.75C8.77039 1.75 7.07867 2.26318 5.63974 3.22464C4.20081 4.1861 3.0793 5.55267 2.41703 7.15152C1.75477 8.75037 1.58149 10.5097 1.91911 12.207C2.25673 13.9044 3.09009 15.4635 4.3138 16.6872C5.53751 17.9109 7.09661 18.7443 8.79394 19.0819C10.4913 19.4195 12.2506 19.2462 13.8495 18.5839C15.4483 17.9217 16.8149 16.8002 17.7763 15.3612C18.7378 13.9223 19.251 12.2306 19.251 10.5C19.251 9.35093 19.0247 8.21312 18.5849 7.15152C18.1452 6.08992 17.5007 5.12533 16.6882 4.31282C15.8757 3.5003 14.9111 2.85578 13.8495 2.41605C12.7879 1.97633 11.65 1.75 10.501 1.75ZM10.501 17.5C9.11651 17.5 7.76313 17.0895 6.61199 16.3203C5.46084 15.5511 4.56364 14.4579 4.03382 13.1788C3.50401 11.8997 3.36539 10.4922 3.63548 9.13437C3.90558 7.7765 4.57227 6.52922 5.55123 5.55025C6.5302 4.57129 7.77748 3.9046 9.13535 3.6345C10.4932 3.36441 11.9007 3.50303 13.1798 4.03284C14.4588 4.56266 15.5521 5.45986 16.3213 6.61101C17.0904 7.76215 17.501 9.11553 17.501 10.5C17.501 12.3565 16.7635 14.137 15.4507 15.4497C14.138 16.7625 12.3575 17.5 10.501 17.5Z" fill="black"/>
<path d="M13.126 9.62512H11.376V7.87512C11.376 7.64306 11.2838 7.4205 11.1197 7.2564C10.9556 7.09231 10.733 7.00012 10.501 7.00012C10.2689 7.00012 10.0464 7.09231 9.88226 7.2564C9.71816 7.4205 9.62598 7.64306 9.62598 7.87512V9.62512H7.87598C7.64391 9.62512 7.42135 9.71731 7.25726 9.8814C7.09316 10.0455 7.00098 10.2681 7.00098 10.5001C7.00098 10.7322 7.09316 10.9547 7.25726 11.1188C7.42135 11.2829 7.64391 11.3751 7.87598 11.3751H9.62598V13.1251C9.62598 13.3572 9.71816 13.5797 9.88226 13.7438C10.0464 13.9079 10.2689 14.0001 10.501 14.0001C10.733 14.0001 10.9556 13.9079 11.1197 13.7438C11.2838 13.5797 11.376 13.3572 11.376 13.1251V11.3751H13.126C13.358 11.3751 13.5806 11.2829 13.7447 11.1188C13.9088 10.9547 14.001 10.7322 14.001 10.5001C14.001 10.2681 13.9088 10.0455 13.7447 9.8814C13.5806 9.71731 13.358 9.62512 13.126 9.62512Z" fill="black"/>
</svg>
