<svg width="21" height="21" viewBox="0 0 21 21" fill="none" xmlns="http://www.w3.org/2000/svg">
<path d="M19.0313 18.1033L14.0752 13.1472C15.2661 11.7175 15.86 9.88363 15.7333 8.0272C15.6065 6.17077 14.769 4.43466 13.3948 3.18004C12.0206 1.92542 10.2157 1.24887 8.35541 1.29114C6.49514 1.33342 4.72278 2.09125 3.40703 3.407C2.09128 4.72275 1.33345 6.49511 1.29117 8.35538C1.2489 10.2157 1.92545 12.0206 3.18007 13.3948C4.43469 14.7689 6.1708 15.6065 8.02723 15.7332C9.88366 15.86 11.7175 15.2661 13.1472 14.0752L18.1033 19.0313L19.0313 18.1033ZM2.62503 8.53125C2.62503 7.36311 2.97143 6.22119 3.62042 5.24992C4.2694 4.27864 5.19183 3.52162 6.27106 3.07459C7.35029 2.62756 8.53784 2.5106 9.68354 2.73849C10.8292 2.96638 11.8816 3.5289 12.7076 4.3549C13.5336 5.18091 14.0962 6.2333 14.324 7.379C14.5519 8.5247 14.435 9.71225 13.9879 10.7915C13.5409 11.8707 12.7839 12.7931 11.8126 13.4421C10.8413 14.0911 9.69943 14.4375 8.53128 14.4375C6.96538 14.4358 5.46411 13.8129 4.35685 12.7057C3.24959 11.5984 2.62677 10.0972 2.62503 8.53125Z" fill="#37433A"/>
</svg>
