<svg width="27" height="27" viewBox="0 0 27 27" fill="none" xmlns="http://www.w3.org/2000/svg">
<path d="M23.715 7.87502C23.5206 7.53822 23.2423 7.25754 22.9071 7.06038C22.5719 6.86321 22.1913 6.75628 21.8025 6.75002H7.4025L6.75 4.20752C6.68407 3.96209 6.53699 3.74621 6.33271 3.59504C6.12843 3.44387 5.87898 3.36632 5.625 3.37502H3.375C3.07663 3.37502 2.79048 3.49355 2.5795 3.70452C2.36853 3.9155 2.25 4.20165 2.25 4.50002C2.25 4.79839 2.36853 5.08454 2.5795 5.29551C2.79048 5.50649 3.07663 5.62502 3.375 5.62502H4.77L7.875 17.1675C7.94093 17.413 8.08801 17.6288 8.29229 17.78C8.49657 17.9312 8.74602 18.0087 9 18H19.125C19.3328 17.9994 19.5363 17.9412 19.713 17.832C19.8897 17.7228 20.0328 17.5668 20.1262 17.3813L23.8162 10.0013C23.9762 9.66604 24.0506 9.29642 24.033 8.92541C24.0153 8.5544 23.9061 8.19354 23.715 7.87502ZM18.4275 15.75H9.855L8.02125 9.00002H21.8025L18.4275 15.75Z" fill="white"/>
<path d="M8.4375 23.625C9.36948 23.625 10.125 22.8695 10.125 21.9375C10.125 21.0055 9.36948 20.25 8.4375 20.25C7.50552 20.25 6.75 21.0055 6.75 21.9375C6.75 22.8695 7.50552 23.625 8.4375 23.625Z" fill="white"/>
<path d="M19.6875 23.625C20.6195 23.625 21.375 22.8695 21.375 21.9375C21.375 21.0055 20.6195 20.25 19.6875 20.25C18.7555 20.25 18 21.0055 18 21.9375C18 22.8695 18.7555 23.625 19.6875 23.625Z" fill="white"/>
</svg>
