<svg width="30" height="30" viewBox="0 0 30 30" fill="none" xmlns="http://www.w3.org/2000/svg">
<path d="M23.75 11.25C22.9763 11.2522 22.2222 11.4936 21.5912 11.9412C20.9601 12.3888 20.4829 13.0206 20.225 13.75H3.75C3.41848 13.75 3.10054 13.8817 2.86612 14.1161C2.6317 14.3506 2.5 14.6685 2.5 15C2.5 15.3315 2.6317 15.6495 2.86612 15.8839C3.10054 16.1183 3.41848 16.25 3.75 16.25H20.225C20.4543 16.8986 20.8576 17.4716 21.3908 17.9064C21.924 18.3411 22.5665 18.6208 23.248 18.7148C23.9294 18.8088 24.6237 18.7136 25.2546 18.4395C25.8856 18.1654 26.429 17.723 26.8254 17.1608C27.2218 16.5985 27.4559 15.938 27.5021 15.2516C27.5482 14.5653 27.4047 13.8794 27.0872 13.2691C26.7696 12.6588 26.2903 12.1477 25.7017 11.7916C25.1132 11.4354 24.4379 11.2481 23.75 11.25ZM23.75 16.25C23.5028 16.25 23.2611 16.1767 23.0555 16.0394C22.85 15.902 22.6898 15.7068 22.5951 15.4784C22.5005 15.25 22.4758 14.9986 22.524 14.7562C22.5723 14.5137 22.6913 14.291 22.8661 14.1161C23.0409 13.9413 23.2637 13.8223 23.5061 13.774C23.7486 13.7258 23.9999 13.7506 24.2284 13.8452C24.4568 13.9398 24.652 14.1 24.7893 14.3056C24.9267 14.5111 25 14.7528 25 15C25 15.3315 24.8683 15.6495 24.6339 15.8839C24.3995 16.1183 24.0815 16.25 23.75 16.25Z" fill="#37433a"/>
<path d="M3.75 8.75001H5.225C5.48776 9.47395 5.96704 10.0994 6.59771 10.5415C7.22838 10.9835 7.97985 11.2206 8.75 11.2206C9.52015 11.2206 10.2716 10.9835 10.9023 10.5415C11.533 10.0994 12.0122 9.47395 12.275 8.75001H26.25C26.5815 8.75001 26.8995 8.61831 27.1339 8.38389C27.3683 8.14947 27.5 7.83153 27.5 7.50001C27.5 7.16848 27.3683 6.85054 27.1339 6.61612C26.8995 6.3817 26.5815 6.25001 26.25 6.25001H12.275C12.0122 5.52606 11.533 4.90058 10.9023 4.45856C10.2716 4.01653 9.52015 3.77941 8.75 3.77941C7.97985 3.77941 7.22838 4.01653 6.59771 4.45856C5.96704 4.90058 5.48776 5.52606 5.225 6.25001H3.75C3.41848 6.25001 3.10054 6.3817 2.86612 6.61612C2.6317 6.85054 2.5 7.16848 2.5 7.50001C2.5 7.83153 2.6317 8.14947 2.86612 8.38389C3.10054 8.61831 3.41848 8.75001 3.75 8.75001ZM8.75 6.25001C8.99723 6.25001 9.2389 6.32332 9.44446 6.46067C9.65002 6.59802 9.81024 6.79324 9.90485 7.02165C9.99946 7.25006 10.0242 7.50139 9.97598 7.74387C9.92775 7.98634 9.8087 8.20907 9.63388 8.38389C9.45907 8.5587 9.23634 8.67776 8.99386 8.72599C8.75139 8.77422 8.50005 8.74946 8.27165 8.65485C8.04324 8.56025 7.84801 8.40003 7.71066 8.19447C7.57331 7.98891 7.5 7.74723 7.5 7.50001C7.5 7.16848 7.6317 6.85054 7.86612 6.61612C8.10054 6.3817 8.41848 6.25001 8.75 6.25001Z" fill="#37433a"/>
<path d="M26.25 21.25H17.275C17.0122 20.5261 16.533 19.9006 15.9023 19.4586C15.2716 19.0165 14.5201 18.7794 13.75 18.7794C12.9799 18.7794 12.2284 19.0165 11.5977 19.4586C10.967 19.9006 10.4878 20.5261 10.225 21.25H3.75C3.41848 21.25 3.10054 21.3817 2.86612 21.6161C2.6317 21.8505 2.5 22.1685 2.5 22.5C2.5 22.8315 2.6317 23.1495 2.86612 23.3839C3.10054 23.6183 3.41848 23.75 3.75 23.75H10.225C10.4878 24.474 10.967 25.0994 11.5977 25.5415C12.2284 25.9835 12.9799 26.2206 13.75 26.2206C14.5201 26.2206 15.2716 25.9835 15.9023 25.5415C16.533 25.0994 17.0122 24.474 17.275 23.75H26.25C26.5815 23.75 26.8995 23.6183 27.1339 23.3839C27.3683 23.1495 27.5 22.8315 27.5 22.5C27.5 22.1685 27.3683 21.8505 27.1339 21.6161C26.8995 21.3817 26.5815 21.25 26.25 21.25ZM13.75 23.75C13.5028 23.75 13.2611 23.6767 13.0555 23.5393C12.85 23.402 12.6898 23.2068 12.5951 22.9784C12.5005 22.75 12.4758 22.4986 12.524 22.2561C12.5722 22.0137 12.6913 21.7909 12.8661 21.6161C13.0409 21.4413 13.2637 21.3223 13.5061 21.274C13.7486 21.2258 13.9999 21.2506 14.2284 21.3452C14.4568 21.4398 14.652 21.6 14.7893 21.8055C14.9267 22.0111 15 22.2528 15 22.5C15 22.8315 14.8683 23.1495 14.6339 23.3839C14.3995 23.6183 14.0815 23.75 13.75 23.75Z" fill="#37433a"/>
</svg>
