<svg width="22" height="15" viewBox="0 0 22 15" fill="none" xmlns="http://www.w3.org/2000/svg">
<path d="M4.77462 7.05656C7.00319 7.05656 8.66862 6.29203 8.66862 5.6092V4.48447C7.81749 5.04234 6.42072 5.39356 4.77462 5.39356C3.12851 5.39356 1.73172 5.04234 0.880612 4.48447V5.6092C0.880612 6.29203 2.54606 7.05656 4.77462 7.05656ZM4.77462 9.30356C7.06944 9.30356 8.66862 8.54067 8.66862 7.85621V6.92914C7.81749 7.487 6.42072 7.83905 4.77462 7.83905C3.12851 7.83905 1.73172 7.48702 0.880612 6.92914V7.85621C0.880612 8.54069 2.47981 9.30356 4.77462 9.30356ZM4.77462 11.7352C7.00319 11.7352 8.66862 10.9707 8.66862 10.2878V9.17616C7.81749 9.73403 6.42072 10.0861 4.77462 10.0861C3.12851 10.0861 1.73172 9.73405 0.880612 9.17616V10.2878C0.880612 10.9707 2.54606 11.7352 4.77462 11.7352ZM4.77462 14.1864C7.00319 14.1864 8.66862 13.4227 8.66862 12.739V11.6078C7.81749 12.1656 6.42072 12.5177 4.77462 12.5177C3.12851 12.5177 1.73172 12.1657 0.880612 11.6078V12.739C0.880612 13.4227 2.54606 14.1864 4.77462 14.1864ZM4.77462 1.71635C2.47979 1.71635 0.880612 2.47925 0.880612 3.16371C0.880612 3.84899 2.47981 4.61189 4.77462 4.61189C7.06942 4.61189 8.66862 3.84899 8.66862 3.16371C8.66862 2.47923 7.06942 1.71635 4.77462 1.71635ZM4.77462 0.933853C7.49638 0.933853 9.54919 1.89278 9.54919 3.16371V12.9367C9.54919 13.0208 9.51883 13.0984 9.46821 13.1629C9.06703 14.2174 7.18443 14.9697 4.7746 14.9697C2.36476 14.9697 0.482165 14.2174 0.0809791 13.1629C0.0303645 13.0984 0 13.0208 0 12.9367V3.16371C0 1.89278 2.05281 0.933853 4.77457 0.933853H4.77462ZM19.5552 6.45548C21.0173 6.9039 22 8.12828 22 9.50214C22 11.2795 20.3714 12.7252 18.3691 12.7252C17.0441 12.7252 15.8231 12.0832 15.1846 11.05C15.0677 10.8613 15.1459 10.6236 15.3594 10.5199C15.5719 10.4153 15.8406 10.4847 15.9575 10.6743C16.4415 11.4567 17.3653 11.9427 18.3691 11.9427C19.8855 11.9427 21.1185 10.8474 21.1185 9.50214C21.1185 8.46155 20.375 7.53448 19.2681 7.1947C19.0381 7.12446 18.9157 6.90147 18.9948 6.69727C19.0739 6.49306 19.3251 6.38524 19.5552 6.4555L19.5552 6.45548ZM17.7695 6.40067C17.7695 8.17803 16.1408 9.62376 14.1396 9.62376C12.1373 9.62376 10.5096 8.17803 10.5096 6.40067C10.5096 4.62414 12.1373 3.17841 14.1396 3.17841C16.1408 3.17841 17.7695 4.62414 17.7695 6.40067ZM14.1396 8.84126C15.655 8.84126 16.8889 7.74676 16.8889 6.40067C16.8889 5.05541 15.655 3.96009 14.1396 3.96009C12.6241 3.96009 11.3902 5.05541 11.3902 6.40067C11.3902 7.74676 12.6241 8.84126 14.1396 8.84126Z" fill="#32543A"/>
</svg>
